<?xml version="1.0" encoding="utf-8"?><!-- Uploaded to: SVG Repo, www.svgrepo.com, Generator: SVG Repo Mixer Tools -->
<svg width="800px" height="800px" viewBox="0 0 24 24" fill="none" xmlns="http://www.w3.org/2000/svg">
<path d="M13.7778 5H14.6667C15.5047 5 15.9237 5 16.1841 5.2636C16.4444 5.52721 16.4444 5.95147 16.4444 6.8V10M13.7778 5V5.8C13.7778 6.22426 13.7778 6.4364 13.6476 6.5682C13.5174 6.7 13.3079 6.7 12.8889 6.7H7.55556C7.13653 6.7 6.92702 6.7 6.79684 6.5682C6.66667 6.4364 6.66667 6.22426 6.66667 5.8V5M13.7778 5C13.7778 4.57574 13.7778 4.2636 13.6476 4.1318C13.5174 4 13.3079 4 12.8889 4H7.55556C7.13653 4 6.92702 4 6.79684 4.1318C6.66667 4.2636 6.66667 4.57574 6.66667 5M6.66667 5H5.77778C4.93973 5 4.5207 5 4.26035 5.2636C4 5.52721 4 5.95147 4 6.8V17.1959C4 18.0445 4 18.4687 4.26035 18.7323C4.5207 18.9959 4.93973 18.9959 5.77778 18.9959H9.77778M14 20H18C18.9428 20 19.4142 20 19.7071 19.7071C20 19.4142 20 18.9428 20 18V14C20 13.0572 20 12.5858 19.7071 12.2929C19.4142 12 18.9428 12 18 12H14C13.0572 12 12.5858 12 12.2929 12.2929C12 12.5858 12 13.0572 12 14V18C12 18.9428 12 19.4142 12.2929 19.7071C12.5858 20 13.0572 20 14 20Z" stroke="#464455" stroke-linecap="round" stroke-linejoin="round"/>
</svg>